<svg xmlns="http://www.w3.org/2000/svg" viewBox="0 0 373.55 497.89"><defs><style>.cls-1{fill:#171a4a;}.cls-2{font-size:26.18px;}.cls-2,.cls-30,.cls-31,.cls-6,.cls-7{fill:#fff;}.cls-10,.cls-12,.cls-16,.cls-2,.cls-20,.cls-31,.cls-6{font-family:Lato-Regular, Lato;}.cls-3{letter-spacing:-0.07em;}.cls-4{letter-spacing:-0.07em;}.cls-5{letter-spacing:-0.09em;}.cls-6{font-size:28.91px;}.cls-7{font-size:15.18px;font-family:MyriadPro-Regular, Myriad Pro;}.cls-8{letter-spacing:0em;}.cls-9{letter-spacing:0em;}.cls-10{font-size:9.83px;}.cls-10,.cls-12,.cls-16,.cls-20,.cls-28{fill:#231f20;}.cls-11{letter-spacing:-0.02em;}.cls-12{font-size:10px;}.cls-13{letter-spacing:-0.01em;}.cls-14{letter-spacing:-0.1em;}.cls-15{letter-spacing:-0.03em;}.cls-16{font-size:11.82px;}.cls-17{font-size:9.14px;}.cls-18{letter-spacing:-0.02em;}.cls-19{letter-spacing:0em;}.cls-20{font-size:12px;}.cls-21{letter-spacing:-0.07em;}.cls-22{letter-spacing:-0.02em;}.cls-23{letter-spacing:-0.03em;}.cls-24{letter-spacing:-0.01em;}.cls-25{letter-spacing:0em;}.cls-26{letter-spacing:-0.02em;}.cls-27{fill:none;stroke:#231f20;stroke-miterlimit:10;stroke-width:4px;}.cls-29{letter-spacing:-0.02em;}.cls-31{font-size:34.47px;}.cls-32{letter-spacing:-0.09em;}</style></defs><title>asset3</title><g id="Layer_2" data-name="Layer 2"><g id="Layer_1-2" data-name="Layer 1"><rect class="cls-1" x="18.21" y="409.92" width="350.79" height="87.97"/><rect class="cls-1" x="18.21" y="155.88" width="350.79" height="41"/><rect class="cls-1" x="18.21" width="350.79" height="41"/><text class="cls-2" transform="translate(28 29.62)">WH<tspan class="cls-3" x="46.47" y="0">A</tspan><tspan x="62.55" y="0">T IS A HE</tspan><tspan class="cls-4" x="167.87" y="0">P</tspan><tspan x="182.06" y="0">A FI</tspan><tspan class="cls-5" x="227.78" y="0">L</tspan><tspan x="238.98" y="0">TER?</tspan></text><text class="cls-6" transform="translate(27.69 483.26)">REQUIRES KNOWLEDGE</text><text class="cls-7" transform="translate(28 181.22)">HOW BIG IS A MIC<tspan class="cls-8" x="112.74" y="0">R</tspan><tspan class="cls-9" x="120.95" y="0">ON?</tspan></text><text class="cls-10" transform="translate(71 377.18)">(About 2000x <tspan class="cls-11" x="61.26" y="0">Z</tspan><tspan x="67.2" y="0">oom)</tspan></text><text class="cls-12" transform="translate(191.28 261.86)">Human Hair: 50150 microns<tspan x="0" y="14">Household dust and lint: 0.01100 micron</tspan><tspan class="cls-13" x="0" y="28">P</tspan><tspan x="5.96" y="28">ollen: 10110 microns</tspan><tspan x="0" y="42">Mold: 150 microns</tspan><tspan class="cls-13" x="0" y="56">P</tspan><tspan x="5.96" y="56">et dander: 0.110 microns</tspan><tspan class="cls-14" x="0" y="70">T</tspan><tspan x="4.85" y="70">obacco Smo</tspan><tspan class="cls-15" x="56.97" y="70">k</tspan><tspan x="61.91" y="70">e: 0.011 micron</tspan><tspan x="0" y="84">Viruses and Bacteria: 0.00110 microns</tspan></text><text class="cls-16" transform="translate(64.63 277.15) scale(0.94 1)">DUST<tspan class="cls-17"><tspan x="0" y="10.97">.0254mm</tspan></tspan></text><text class="cls-16" transform="translate(110.83 254.36) scale(0.94 1)"><tspan class="cls-18">D<tspan class="cls-19" x="8.65" y="0">ANDER</tspan></tspan><tspan class="cls-17"><tspan x="0" y="10.97">.00254mm</tspan></tspan></text><text class="cls-20" transform="translate(40.95 78.81)">HE<tspan class="cls-21" x="16.04" y="0">P</tspan><tspan x="22.55" y="0">A is an acro</tspan><tspan class="cls-22" x="81.89" y="0">n</tspan><tspan x="88.37" y="0">ym for “High Efficency </tspan><tspan class="cls-23" x="206.66" y="0">P</tspan><tspan x="213.69" y="0">articulate Air”</tspan><tspan x="0" y="28.8">This type of air filter can rem</tspan><tspan class="cls-24" x="149.01" y="28.8">ov</tspan><tspan class="cls-25" x="161.52" y="28.8">e at lease 99.97% of dust, pollen, </tspan><tspan x="0" y="43.2">mold, bacteria and a</tspan><tspan class="cls-26" x="104.49" y="43.2">n</tspan><tspan class="cls-25" x="110.97" y="43.2">y airborne particles with a size of </tspan><tspan x="0" y="57.6">0.3 micrometers(um)</tspan></text><ellipse class="cls-27" cx="110.83" cy="289.68" rx="64.83" ry="69.02"/><ellipse class="cls-28" cx="78.36" cy="314.33" rx="19.75" ry="21.03"/><ellipse class="cls-28" cx="184.97" cy="259.23" rx="2.31" ry="2.46"/><ellipse class="cls-28" cx="127.15" cy="275.73" rx="6.54" ry="6.97"/><text class="cls-16" transform="translate(116.04 317.47) scale(0.94 1)">1 MIC<tspan class="cls-29" x="31.75" y="0">R</tspan><tspan x="39.09" y="0">ON</tspan><tspan class="cls-17"><tspan x="0" y="10.97">.001mm</tspan></tspan></text><ellipse class="cls-28" cx="131.49" cy="337.02" rx="2.15" ry="2.29"/><ellipse class="cls-28" cx="184.97" cy="272.23" rx="2.31" ry="2.46"/><ellipse class="cls-28" cx="184.97" cy="286.23" rx="2.31" ry="2.46"/><ellipse class="cls-28" cx="184.97" cy="300.23" rx="2.31" ry="2.46"/><ellipse class="cls-28" cx="184.97" cy="314.23" rx="2.31" ry="2.46"/><ellipse class="cls-28" cx="184.97" cy="328.23" rx="2.31" ry="2.46"/><ellipse class="cls-28" cx="184.97" cy="342.23" rx="2.31" ry="2.46"/><ellipse class="cls-28" cx="32.92" cy="103.34" rx="2.31" ry="2.46"/><ellipse class="cls-28" cx="32.92" cy="74.34" rx="2.31" ry="2.46"/><rect class="cls-30" y="228.7" width="98.11" height="32.99"/><text class="cls-16" transform="translate(17.62 243.19) scale(0.94 1)">HUMAN HAIR<tspan class="cls-17"><tspan x="16.24" y="10.97">.00254mm</tspan></tspan></text><text class="cls-31" transform="translate(27.69 444.9)">CLEANING HEA<tspan class="cls-32" x="248.99" y="0">L</tspan><tspan x="263.75" y="0">THY</tspan></text></g></g></svg>