<svg xmlns="http://www.w3.org/2000/svg" viewBox="0 0 543.14 171.17"><defs><style>.cls-1,.cls-4{fill:#171a4a;}.cls-2,.cls-3{fill:none;}.cls-3{stroke:#171a4a;}.cls-3,.cls-5{stroke-miterlimit:10;stroke-width:0.25px;}.cls-4{font-size:33.59px;font-family:Verdana, Verdana;}.cls-5{fill:#1a1b49;stroke:#1a1b49;}</style></defs><title>logo</title><g id="Layer_2" data-name="Layer 2"><g id="Layer_1-2" data-name="Layer 1"><path class="cls-1" d="M446.12,110.35"/><path class="cls-2" d="M78,96.19"/><path id="I" class="cls-1" d="M187.44,124.29a2.11,2.11,0,0,1-1.9-2.2V16.25a1.45,1.45,0,0,1,1.31-1.47h25c1,0,1.75.58,1.75,1.47V122.39a1.91,1.91,0,0,1-1.75,1.9Z"/><path id="S" class="cls-1" d="M257.81,50.41c-.86,0-1.46-.43-1.75-1.6q-1.31-5.25-4.38-5.25c-1.45,0-2.19,1.16-2.19,2.62,0,4.67,6.86,9.93,15.62,15.92,9.49,6.43,16.64,16.93,16.64,27.74,0,19.56-11.68,35.18-30.8,35.18-22.2,0-32.42-16.06-32.42-39.42a1.56,1.56,0,0,1,1.75-1.46l20.15-1c1,0,1.6.58,1.75,1.9.59,5.84,3.07,12.12,6.58,12.12,2,0,3.35-1.31,3.35-4.67s-8.17-9.93-18-17.82-14.6-18.83-14.6-28.76c0-14.89,11.1-31.1,30.66-31.1s31.68,15.33,31.68,32.7a1.73,1.73,0,0,1-1.76,1.91Z"/><path id="A" class="cls-1" d="M332,15.08A2,2,0,0,1,333.86,17l20,104.39c.3,1.6-.43,3.21-2,3.21H328.17a1.89,1.89,0,0,1-1.89-1.47l-2.92-21.9a1.43,1.43,0,0,0-1.47-1.17H314c-.59,0-1.17.59-1.32,1.47L309.93,123a2,2,0,0,1-1.91,1.61H283.93c-1.31,0-2-1-1.75-2.48L301.75,16.83c.14-.73.88-1.75,1.75-1.75Zm-12.85,55c-.29-2-.58-3.36-1-3.36s-.73,1-1,3.36L315.18,84c-.14.73.15,1.46.89,1.46,4.66,0,5.11,0,5-1.32Z"/><path class="cls-3" d="M83.77,139.68a56.94,56.94,0,0,0-16.46-1.31c-2.39.14-7-.37-9.12,1.11,0,0-1.11,8.31-2.23,9.55-.84-7.14-1-3.33-1.28-1.2,2.43,4.77-2,7.39-8.57,7.4-1.74-.27,6.6-2.85-.88-5-.3,1.59.31-1.59-.55,3.9-1.95,2.22-11.54-.43-10.82-.57s6.44-1.68,4.67-6.06c-3.15,8.31-16.39,1-15.68,1.15,5.13.73,7.08-.14,10.88-1.82,2.11-.92,4.44-1.54,6.12-3.22-3.2,2.76-7.93,3.41-12,4a12.46,12.46,0,0,0,6.77-5.14c-3.85,1.2-7.79.21-11.7.76-5.51.76-11.59.62-17,1.76-2.78.59-8,2.72-4.87,5.83,4.11,4,14.15,1.73,19.28,5.76,3.89,3.06,3.93,8.89,8,11.8,11.15,8,23-4.06,34.52-3.87,7,.11,13.09,3.72,19.73,5.27,8.15,1.9,12.94-2.42,20.74-3.26,14.34-1.53,3.75-6.45,10.62-11.12,2.6-1.77,8.14-8.58,5.44-12.35-2.23-3.12-15.57-.17-18.72,0C92.17,143.44,92.13,141.62,83.77,139.68Z"/><path class="cls-1" d="M138,24.18a2.63,2.63,0,0,0-3.68.46L59,121.57a3.7,3.7,0,0,1,1.14-.26,2.82,2.82,0,0,1,2,.56,2.88,2.88,0,0,1,.88,1.94,5.42,5.42,0,0,1,0,1l75.38-97A2.63,2.63,0,0,0,138,24.18Z"/><path class="cls-1" d="M128.09,30.71s-5.81,6.31-1,7.16c1.56.2,2.32-.61,2.17.36-.31.23,1.32,1.52,2,.43,2.06-2.43,4.33-3.56,1.28-6.75A6,6,0,0,0,128.09,30.71Z"/><path class="cls-1" d="M130.55,39.2h0a1.7,1.7,0,0,1-1.38-.79.21.21,0,0,1,0-.22c0-.19,0-.28,0-.29s0,0-.12,0a2.8,2.8,0,0,0-.38.05,5.34,5.34,0,0,1-1,.11,3.72,3.72,0,0,1-.54,0,2.19,2.19,0,0,1-1.92-1.32c-.73-2.14,2.66-5.86,2.81-6l0,0h0a6,6,0,0,1,1-.09,5.92,5.92,0,0,1,3.23,1.07l.38.22,0,0c2.6,2.74,1.4,4-.27,5.78-.33.34-.67.71-1,1.11A1,1,0,0,1,130.55,39.2Zm-1.48-1.56a.38.38,0,0,1,.29.11.62.62,0,0,1,.06.5v0l0,0a.41.41,0,0,0,.09.15,1.59,1.59,0,0,0,1.08.52h0a.77.77,0,0,0,.69-.38c.35-.42.7-.79,1-1.15,1.64-1.73,2.73-2.89.28-5.46l-.36-.21a5.71,5.71,0,0,0-3.11-1,6,6,0,0,0-.94.08c-.31.35-3.39,3.84-2.74,5.76a2,2,0,0,0,1.75,1.18l.51,0a5.46,5.46,0,0,0,1-.1A2.26,2.26,0,0,1,129.07,37.63Z"/><path class="cls-1" d="M62.58,124.66a3.19,3.19,0,0,0-.94-2.12c-.75-.76-2.52-.42-2.52-.42s-1.43.21-1.9,1.07c-.94,1.73,1.34.44,2.63,1.61s.82,3.4,2.07,2.64C62.91,126.82,62.58,124.66,62.58,124.66Z"/><path class="cls-1" d="M13.39,128a25.65,25.65,0,0,0,3.08-.44,8.72,8.72,0,0,0,5.19-4.43,1.69,1.69,0,0,1,.68-.62,1.75,1.75,0,0,0,.85-2.06,1.37,1.37,0,1,0-2.66.6,2.53,2.53,0,0,1-.65,2.11,6.9,6.9,0,0,1-5.57,3.13,2.76,2.76,0,0,1-.46,0c-.23,0-.45-.08-.75-.14l-1.29-9.28H31.38c-.1.89-.19,1.77-.3,2.64q-.74,5.81-1.48,11.62c-.12.93-.22,1.87-.37,2.79a.89.89,0,0,1-.4.55,15.37,15.37,0,0,1-8.18,2,13.07,13.07,0,0,1-6.12-2,.79.79,0,0,1-.34-.48C13.91,131.93,13.65,129.92,13.39,128Z"/><path class="cls-1" d="M23.75,113.23h6.74a2.07,2.07,0,0,1,.68.11,1.18,1.18,0,0,1,.73,1.31,1.16,1.16,0,0,1-.91,1.2,3.13,3.13,0,0,1-.58,0H12.81c-.92,0-1.44-.47-1.44-1.3a1.27,1.27,0,0,1,1.43-1.34Z"/><text class="cls-4" transform="translate(182.28 154.75)">CLEANING SERVICES</text><path class="cls-1" d="M130.29,29.72a8.22,8.22,0,0,0-2.48-.34c-1.27.09-2.47-2.06-3.56-1.91-9.82,1.26-14.76-3.13-16-4.49s-4.48-7.51-17.37-6.4c-1.51.12-2.18-1.94-4-2.18-.51-3-.48-6.38-1.42-9.26-1.76-5.42-6-5.8-8.87-4.49-4.34,2-7.17,4.65-6.91,8.17,0,.15.06.3.08.45-2,1.89-3,3.87-2.34,4.92s2.56.88,4.82,0a6.06,6.06,0,0,1,1,1.32c.44.91.67,1.89,1.12,2.78a9.21,9.21,0,0,0,1.44,2c.4.43,2,.92,2.11,1.55.25,1.37-2.28,1.8-3.08,2.68a43.89,43.89,0,0,0-3.44,5c-1.76,2.72-1.76,5.42-1.57,8.53a36,36,0,0,0,2.89,10.9,59.75,59.75,0,0,0,4.12,8l3,3.94,0,.09a20.85,20.85,0,0,0-2.58,3.25c-.57,1.25.27,4,.24,5.29-.15,4.65-2.09,8.88-3.14,13.38-1.08,4.7-1.11,9.38-1.67,14.18-.16,1.42-1.31,29.07-1.3,29.08-.49.37-4.57,4.52-5.1,5-.41.21-8.76,5.22,2.56,5.14,5.05-.24,4.2-3.47,11.44-2.28,2.75-1.86-.18-5.7-.19-5.71,2-2.52,2.41-7,3.37-10.74a86.38,86.38,0,0,0,2.18-10.78c.69-5,3-6.19,3.58-12.31L94.36,87c0,.2.07.34.09.45,0,1.81.33,4.41.49,6.1.35,3.58,1.26,5.36,1.35,8.39.19,6.24-.87,10.67-1.7,16.82-.44,3.21-1.24,10.9,1.57,10.57,0,0-2,7.85-.68,8.3,3.79,1.32,5.8,1.36,7.62.38,2.28-1.21,1.29-4.08-.32-6.56-.41-.62.16-2.52.23-2.63a20.33,20.33,0,0,0,1.69-2s2.54-25.31,2.71-30.93.93-11.29,1.43-17c.11-1.26.38-2.79.71-4.8,1.28-6.7.66-7.44,1.14-9.23,0-.33,0-.66.08-1l.25-.36c0-.11.05-.21.08-.33s.07-.3.1-.45c-.29-1.68-.65-3.35-1-5a81.18,81.18,0,0,0-1.84-12c-.79-3.4-6.08-4.53-4.87-14.65a23.29,23.29,0,0,0,5.59,4.37c2.53,1.46,6.09,3,9.1,2.75,2.79-.26,3.67-2.66,4.54-2.37H123c1.27.11,1.45,2.33,2.48,1.94a4.46,4.46,0,0,0,.82-.42,1.62,1.62,0,0,1-.48-.69c-.73-2.14,2.66-5.86,2.81-6l0,0h0a6.05,6.05,0,0,1,1-.09,4.92,4.92,0,0,1,2,.44C131,30.33,130.36,29.75,130.29,29.72Z"/><path class="cls-5" d="M97.3,69.61s-5.8,6.3-1,7.15c1.56.2,2.32-.62,2.17.35-.32.23,1.32,1.52,2,.43,2.06-2.43,4.32-3.55,1.29-6.75A5.93,5.93,0,0,0,97.3,69.61Z"/><path class="cls-1" d="M58,134c.1,1,1,11.78-2,15.14l-.14.16,0-.21a17.75,17.75,0,0,0-.68-4,10.92,10.92,0,0,0-.29,1.81c0,.34-.07.68-.12,1a4.33,4.33,0,0,1,.14,4.38c-1.21,2-4.43,3.12-8.81,3.13h0c-.12,0-.29-.06-.32-.2s.22-.4.79-.81c.79-.55,1.86-1.33,1.73-2.13s-1.12-1.31-3-1.87l-.06.3a23,23,0,0,1-.48,3.48v0l0,0c-.53.61-1.65.92-3.3.92-3.07,0-7.69-1.15-7.72-1.51,0,0,0-.11.12-.12.94-.2,3.59-1.09,4.55-2.88a3.39,3.39,0,0,0,.13-2.82c-1.05,2.53-3.18,3.82-6.31,3.82-4.38,0-9.5-2.62-9.5-2.93v-.1h.14a22.62,22.62,0,0,0,3.24.26c2.9,0,4.74-.82,7.54-2.05l0,0,.61-.26A48.13,48.13,0,0,1,28,147.64l-.1,0,0-.19c3.26-.91,5.66-3.58,7.79-5.94l.87-1c1.06-2.71,9.16-7.67,12.58-9.67H49a15.67,15.67,0,0,0-3.61,1.56l-.24.12.1-.25c2.37-5.9,7.07-7.26,7.12-7.27a5.62,5.62,0,0,1,1.57-.23c2.18,0,4-1.19,6,1.24,1.31,1.6.47,3.94.47,4.76C60.46,132.41,58.37,133.74,58,134Z"/></g></g></svg>