<svg id="Layer_1" data-name="Layer 1" xmlns="http://www.w3.org/2000/svg" xmlns:xlink="http://www.w3.org/1999/xlink" viewBox="0 0 391.44 200.5"><defs><style>.cls-1,.cls-6{fill:#bdd631;}.cls-2{fill:#171a4a;}.cls-3{fill:#fff;}.cls-4,.cls-5,.cls-7{stroke:#bdd631;stroke-miterlimit:10;}.cls-4{fill:url(#linear-gradient);}.cls-5{fill:url(#linear-gradient-2);}.cls-6{font-size:17px;font-family:Verdana-Bold, Verdana;font-weight:700;letter-spacing:0.03em;}.cls-7{fill:url(#linear-gradient-3);}</style><linearGradient id="linear-gradient" x1="245.84" y1="319.72" x2="299.96" y2="319.72" gradientUnits="userSpaceOnUse"><stop offset="0" stop-color="#1a1b49" stop-opacity="0.8"/><stop offset="1" stop-color="#1a1b49"/></linearGradient><linearGradient id="linear-gradient-2" x1="290.12" y1="347.97" x2="362.73" y2="306.05" xlink:href="#linear-gradient"/><linearGradient id="linear-gradient-3" x1="217.66" y1="319.41" x2="241.6" y2="319.41" xlink:href="#linear-gradient"/></defs><title>2017 Logo Revised</title><path class="cls-1" d="M93.82,325.51c2,0,5.95,2.41,5.92,2.19s-3.54,2.15-5.5,2.12a4.51,4.51,0,0,1-3.75-2.22C90.37,327,91.87,325.48,93.82,325.51Z" transform="translate(-68.65 -219.19)"/><polygon class="cls-2" points="76.11 104.49 50.32 101.79 50.32 95.28 76.11 99.17 76.11 104.49"/><polygon class="cls-2" points="50.32 110.37 50.32 103.87 76.11 107.76 50.32 110.37"/><polygon class="cls-1" points="81.73 128.04 50.32 126.43 50.32 133.93 81.73 139.02 81.73 128.04"/><polygon class="cls-1" points="50.32 118.05 81.73 115.77 81.73 126.43 50.32 125.34 50.32 118.05"/><polygon class="cls-1" points="50.73 109.8 81.73 103.81 81.73 113.96 50.73 116.78 50.73 109.8"/><polygon class="cls-2" points="114.52 116.78 83.22 113.92 83.22 103.81 114.52 109.86 114.52 116.78"/><polygon class="cls-2" points="114.52 125.22 83.22 126.32 83.22 115.77 114.52 118 114.52 125.22"/><polygon class="cls-2" points="114.52 126.43 83.74 128 83.74 139.02 114.52 134.01 114.52 126.43"/><polygon class="cls-1" points="32.84 119.19 48.96 120.01 48.96 127.36 32.84 124.75 32.84 119.19"/><polygon class="cls-1" points="32.84 118.29 48.96 118.82 48.96 111.63 32.84 112.84 32.84 118.29"/><polygon class="cls-1" points="32.84 106.92 48.96 103.8 48.96 110.43 32.84 111.94 32.84 106.92"/><polygon class="cls-1" points="32.84 100.47 48.96 95.28 48.96 102.27 32.84 105.76 32.84 100.47"/><polygon class="cls-1" points="32.84 94.16 48.96 86.95 48.96 94.02 32.84 99.51 32.84 94.16"/><polygon class="cls-2" points="76.11 92.84 50.32 87.07 50.32 93.56 76.11 98.06 76.11 92.84"/><circle class="cls-2" cx="175.05" cy="263.99" r="4.96" transform="translate(-201.46 -29.75) rotate(-42.84)"/><circle class="cls-3" cx="175.56" cy="264.01" r="4.1" transform="translate(-201.33 -29.39) rotate(-42.84)"/><path id="S" class="cls-4" d="M279.38,303.07c-.74,0-1.25-.37-1.5-1.37q-1.11-4.48-3.74-4.48c-1.24,0-1.87,1-1.87,2.24,0,4,5.86,8.48,13.34,13.6,8.11,5.49,14.22,14.46,14.22,23.69,0,16.71-10,30.05-26.31,30.05-19,0-27.69-13.72-27.69-33.67a1.33,1.33,0,0,1,1.5-1.25l17.21-.87c.87,0,1.37.5,1.49,1.62.5,5,2.63,10.35,5.62,10.35,1.74,0,2.86-1.12,2.86-4s-7-8.48-15.34-15.22-12.47-16.08-12.47-24.56c0-12.72,9.48-26.56,26.19-26.56S300,285.74,300,300.58a1.48,1.48,0,0,1-1.5,1.63Z" transform="translate(-68.65 -219.19)"/><path id="A" class="cls-5" d="M342.73,272.9a1.72,1.72,0,0,1,1.61,1.62l17.08,89.16c.25,1.37-.37,2.74-1.74,2.74H339.48a1.62,1.62,0,0,1-1.62-1.25l-2.49-18.71a1.22,1.22,0,0,0-1.26-1h-6.73c-.5,0-1,.5-1.13,1.25l-2.36,18.33a1.71,1.71,0,0,1-1.63,1.37H301.7c-1.12,0-1.74-.87-1.49-2.12l16.71-89.91c.12-.62.75-1.5,1.49-1.5Zm-11,47c-.25-1.75-.5-2.87-.87-2.87s-.63.88-.87,2.87l-1.63,11.85c-.12.62.13,1.25.76,1.25,4,0,4.36,0,4.23-1.13Z" transform="translate(-68.65 -219.19)"/><text class="cls-6" transform="translate(148.39 167.02)">COMMERCIAL CLEANING</text><path id="I" class="cls-7" d="M219.28,366.18a1.8,1.8,0,0,1-1.62-1.88V273.9a1.24,1.24,0,0,1,1.12-1.25H240.1c.88,0,1.5.5,1.5,1.25v90.66a1.63,1.63,0,0,1-1.5,1.62Z" transform="translate(-68.65 -219.19)"/><path class="cls-1" d="M104.13,391.29c-3.76,3.67-15.86,6.83-15.39,7.21s2.58-10.86,6.35-14.53,9.92-3.9,11.34-3S107.89,387.62,104.13,391.29Z" transform="translate(-68.65 -219.19)"/><path class="cls-1" d="M132.24,368.25c1.45-3.19,8.18-8.06,7.81-8.19s1,7.36-.43,10.54-5.21,4.81-6.31,4.59S130.8,371.43,132.24,368.25Z" transform="translate(-68.65 -219.19)"/><path class="cls-1" d="M173.23,394.67c2.46,7.2-2.26,25.43-1.36,25S158,410,155.53,402.81s2-15.7,4.39-17.1S170.77,387.47,173.23,394.67Z" transform="translate(-68.65 -219.19)"/><path class="cls-1" d="M79.93,354.42c-3,2-11.54,2.58-11.27,2.89s3.12-7,6.12-9,7.17-1.36,8-.57S82.93,352.43,79.93,354.42Z" transform="translate(-68.65 -219.19)"/><path class="cls-1" d="M79.93,312.51C78.22,312.19,75,309.81,75,310s3.38-1.11,5.09-.8a4.15,4.15,0,0,1,3,2.23C83.15,311.89,81.64,312.82,79.93,312.51Z" transform="translate(-68.65 -219.19)"/><circle class="cls-2" cx="65.57" cy="60.42" r="3.89"/><circle class="cls-3" cx="65.86" cy="60.71" r="3.22"/><circle class="cls-1" cx="150.87" cy="254.05" r="4.96" transform="translate(-129.76 -170.97) rotate(-15.14)"/><circle class="cls-3" cx="150.61" cy="254.5" r="4.1" transform="translate(-129.89 -171.02) rotate(-15.14)"/><circle class="cls-3" cx="72.56" cy="258.39" r="1.9" transform="translate(-133.62 -191.27) rotate(-15.14)"/><circle class="cls-1" cx="115.05" cy="233.1" r="2.3" transform="translate(-125.54 -181.05) rotate(-15.14)"/><circle class="cls-3" cx="114.93" cy="233.31" r="1.9" transform="translate(-125.6 -181.08) rotate(-15.14)"/><circle class="cls-2" cx="134.53" cy="221.49" r="2.3" transform="translate(-121.83 -176.37) rotate(-15.14)"/><circle class="cls-3" cx="134.41" cy="221.7" r="1.9" transform="translate(-121.89 -176.39) rotate(-15.14)"/><circle class="cls-2" cx="107.13" cy="254.64" r="6.32" transform="translate(-187.99 -122.75) rotate(-32.25)"/><circle class="cls-3" cx="107.5" cy="254.35" r="5.59" transform="translate(-187.78 -122.6) rotate(-32.25)"/><circle class="cls-2" cx="86.32" cy="237.6" r="2.3" transform="translate(-127.71 -188.4) rotate(-15.14)"/><circle class="cls-3" cx="86.2" cy="237.8" r="1.9" transform="translate(-127.77 -188.42) rotate(-15.14)"/><path class="cls-2" d="M184,300.6" transform="translate(-68.65 -219.19)"/><path class="cls-3" d="M184.3,300.7" transform="translate(-68.65 -219.19)"/><circle class="cls-1" cx="159.96" cy="270.41" r="2.3" transform="translate(-133.72 -168.03) rotate(-15.14)"/><circle class="cls-3" cx="159.84" cy="270.62" r="1.9" transform="translate(-133.78 -168.05) rotate(-15.14)"/><ellipse class="cls-2" cx="159.17" cy="300.21" rx="4.72" ry="4.96" transform="translate(-141.53 -167.2) rotate(-15.14)"/><ellipse class="cls-3" cx="158.93" cy="300.65" rx="3.9" ry="4.1" transform="translate(-141.66 -167.25) rotate(-15.14)"/><path class="cls-1" d="M182.73,295c-.37-.46-.75-.91-1.13-1.35a52.86,52.86,0,0,1-84,64.16c-13-16.4-12-35.79-3.49-53.44.28.2,5.13,4.52,6.49,5.74l.87-2.84c.36-1.18.66-1.43,1.89-1.54l13.93-1.3.43-.06c-.45-.75-.87-1.47-1.31-2.17s-.43-1,.23-1.61c1.1-1,2.22-1.93,3.33-2.89l2.43-2.11-2.89-1.16-3.21-1.27a1.12,1.12,0,0,1-.76-1.63c.28-.88.56-1.75.86-2.71l-3.6.92-4.1,1.06-.23.05a1.17,1.17,0,0,1-1.24-.41,1,1,0,0,1,.24-1.2c.61-.69,1.26-1.36,1.91-2l6.87-7,.12-.16c-.16,0-.29-.07-.42-.08l-2.91-.32c-1.36-.15-1.73-.61-1.59-2q.38-3.89.76-7.79c0-.08,0-.16,0-.25l-.22.11-6.9,3.68c-1.19.64-1.75.47-2.42-.72l-1.41-2.56c-.06-.11-.14-.22-.24-.36-.05.1-.08.13-.1.18q-1.93,4.52-3.86,9c-.37.85-.73,1.7-1.14,2.54a1,1,0,0,1-1,.68c-.38,0-.74-.46-.86-1,0-.08,0-.16,0-.24l-.59-4.19-.52-3.68-2.17,1.84a1.12,1.12,0,0,1-1.8-.08l-2.41-2.48-2.18-2.22-1,3c-.47,1.39-.92,2.79-1.4,4.18-.29.84-.55,1-1.4.83s-1.63-.25-2.5-.38c0,.18.07.3.11.42l4.13,13.36a1.7,1.7,0,0,1-.7,2.34l-2.29,1.89c1.64.79,10.53,5.12,10.76,5.26A56.39,56.39,0,1,0,182.73,295Z" transform="translate(-68.65 -219.19)"/></svg>