<svg xmlns="http://www.w3.org/2000/svg" viewBox="0 0 554.29 194.58"><defs><style>.cls-1,.cls-4{fill:#171a4a;}.cls-2{fill:#fff;}.cls-3{fill:#1a5c2e;}.cls-4{font-size:21.77px;font-family:Verdana, Verdana;}.cls-5{fill:#bdd631;}</style></defs><title>logo_2</title><g id="Layer_2" data-name="Layer 2"><g id="Layer_1-2" data-name="Layer 1"><circle class="cls-1" cx="143.67" cy="44.8" r="4.96" transform="translate(7.86 109.64) rotate(-42.84)"/><circle class="cls-2" cx="144.19" cy="44.82" r="4.1" transform="translate(7.99 110) rotate(-42.84)"/><circle class="cls-1" cx="73.04" cy="84.12" r="2.3" transform="translate(-19.44 22) rotate(-15.14)"/><circle class="cls-2" cx="72.92" cy="84.33" r="1.9" transform="translate(-19.5 21.97) rotate(-15.14)"/><circle class="cls-1" cx="92.53" cy="72.51" r="2.3" transform="translate(-15.73 26.68) rotate(-15.14)"/><circle class="cls-2" cx="92.41" cy="72.72" r="1.9" transform="translate(-15.79 26.66) rotate(-15.14)"/><circle class="cls-1" cx="64.7" cy="104.32" r="2.88" transform="translate(-25 20.52) rotate(-15.14)"/><circle class="cls-2" cx="64.55" cy="104.58" r="2.38" transform="translate(-25.07 20.49) rotate(-15.14)"/><circle class="cls-1" cx="89.08" cy="89.79" r="2.88" transform="translate(-20.36 26.38) rotate(-15.14)"/><circle class="cls-2" cx="88.93" cy="90.05" r="2.38" transform="translate(-20.43 26.35) rotate(-15.14)"/><path class="cls-3" d="M131.27,143.13c-20.56,16.26-50.66,12.45-67.23-8.5-16.23-20.53-13.44-49.89,6-66.36-.42.31-.85.62-1.27.95-21.94,17.34-25.39,49.52-7.72,71.87s49.78,26.41,71.71,9.07,25.39-49.52,7.72-71.87c-.34-.42-.69-.83-1-1.24C154.93,97.92,151.42,127.2,131.27,143.13Z"/><path id="S" class="cls-1" d="M230,69.88c-.74,0-1.25-.37-1.5-1.37Q227.4,64,224.77,64c-1.24,0-1.87,1-1.87,2.24,0,4,5.86,8.48,13.34,13.6,8.11,5.49,14.22,14.46,14.22,23.69,0,16.71-10,30.05-26.31,30.05-19,0-27.69-13.72-27.69-33.67a1.33,1.33,0,0,1,1.5-1.25l17.21-.87c.87,0,1.37.5,1.49,1.62.5,5,2.63,10.35,5.62,10.35,1.74,0,2.86-1.12,2.86-4s-7-8.48-15.34-15.22S197.34,74.5,197.34,66c0-12.72,9.48-26.56,26.19-26.56s27.06,13.1,27.06,27.93a1.48,1.48,0,0,1-1.5,1.63Z"/><path id="A" class="cls-1" d="M293.36,39.71A1.72,1.72,0,0,1,295,41.33l17.08,89.16c.25,1.37-.37,2.74-1.74,2.74H290.11a1.62,1.62,0,0,1-1.62-1.25L286,113.28a1.22,1.22,0,0,0-1.26-1H278c-.5,0-1,.5-1.13,1.25l-2.36,18.33a1.71,1.71,0,0,1-1.63,1.37H252.32c-1.12,0-1.74-.87-1.49-2.12L267.54,41.2c.12-.62.75-1.5,1.49-1.5Zm-11,47c-.25-1.75-.5-2.87-.87-2.87s-.63.88-.87,2.87L279,98.57c-.12.62.13,1.25.76,1.25,4,0,4.36,0,4.23-1.13Z"/><path class="cls-3" d="M75.31,84.6,89,83.83l.42,0c-.47-.74-.91-1.43-1.36-2.12s-.46-1,.18-1.54c1.05-.89,2.12-1.77,3.18-2.66l2.32-1.94-2.89-1.22L87.64,73c-.82-.34-1-.79-.81-1.59s.49-1.66.76-2.57l-3.52.76-4,.88-.23,0a1.25,1.25,0,0,1-1.24-.44.93.93,0,0,1,.2-1.14c.58-.64,1.2-1.26,1.81-1.87l6.54-6.5.12-.15-.42-.09L84,59.92c-1.34-.19-1.72-.64-1.64-1.93q.24-3.72.48-7.43c0-.08,0-.15,0-.24l-.22.1-6.68,3.29c-1.15.57-1.71.39-2.41-.78L72,50.43c-.07-.11-.15-.22-.24-.35-.05.09-.08.13-.09.16q-1.75,4.26-3.5,8.53c-.33.8-.66,1.61-1,2.39a.93.93,0,0,1-1,.62,1.25,1.25,0,0,1-.88-1c0-.08,0-.15,0-.23l-.72-4L63.88,53,61.8,54.69A1.14,1.14,0,0,1,60,54.55l-2.46-2.45-2.23-2.2-.9,2.88c-.41,1.32-.81,2.64-1.24,4-.26.79-.51.91-1.35.75s-1.62-.29-2.48-.45c.05.18.08.29.12.41L54,70.38c.4,1.14.3,1.49-.61,2.21l-2.19,1.73L56,76.7c1.79.89,3.59,1.77,5.37,2.67a18.71,18.71,0,0,1,2.81,1.88c1.52,1.3,3,2.62,4.53,3.93l4,3.52L73.5,86C73.81,84.89,74.1,84.67,75.31,84.6Z"/><text class="cls-4" transform="translate(163.41 153.31)">COMMERCIAL CLEANING SERVICES</text><polygon class="cls-5" points="113.51 66.23 132.99 52.53 132.99 133.08 113.51 132.83 113.51 66.23"/><polygon class="cls-3" points="135.57 58.15 132.99 52.5 132.99 133.08 135.57 132.98 135.57 58.15"/><polygon class="cls-5" points="102.48 95.19 121.96 87.43 121.96 133.08 102.48 132.94 102.48 95.19"/><polygon class="cls-3" points="124.54 90.62 121.96 87.41 121.96 133.08 124.54 133.02 124.54 90.62"/><polygon class="cls-5" points="64.15 134.62 101.27 135.39 101.27 95.18 64.15 114.51 64.15 134.62"/><polygon class="cls-3" points="138.71 114.1 101.27 95.18 101.27 135.39 138.71 134.03 138.71 114.1"/><path class="cls-5" d="M131.33,145.77A49.42,49.42,0,0,1,68.75,69.27c-.44.33-.88.65-1.32,1a52.72,52.72,0,1,0,74.06,8.66c-.34-.43-.7-.85-1.05-1.27A49.42,49.42,0,0,1,131.33,145.77Z"/><path id="I" class="cls-1" d="M169.91,133a1.8,1.8,0,0,1-1.62-1.88V40.71a1.24,1.24,0,0,1,1.12-1.25h21.32c.88,0,1.5.5,1.5,1.25v90.66a1.63,1.63,0,0,1-1.5,1.62Z"/><path class="cls-5" d="M71.39,82.53l13-1.22.4-.06c-.42-.7-.82-1.37-1.22-2s-.4-1,.22-1.51c1-.91,2.07-1.8,3.11-2.71l2.27-2L86.49,72l-3-1.19a1.05,1.05,0,0,1-.71-1.52l.81-2.53-3.36.86-3.83,1-.22,0A1.09,1.09,0,0,1,75,68.23a1,1,0,0,1,.23-1.12c.57-.65,1.18-1.27,1.78-1.89l6.42-6.57.12-.15-.39-.07-2.72-.3C79.17,58,78.83,57.55,79,56.3q.36-3.64.71-7.28c0-.07,0-.15,0-.23l-.21.1L73,52.33c-1.11.6-1.64.44-2.26-.68l-1.32-2.4c-.06-.11-.13-.21-.22-.34l-.09.16-3.61,8.45c-.34.8-.68,1.59-1.06,2.37a1,1,0,0,1-.95.64c-.36,0-.69-.43-.8-.93,0-.07,0-.15,0-.22l-.55-3.92L61.61,52l-2,1.72a1.05,1.05,0,0,1-1.68-.08l-2.25-2.31-2-2.08-1,2.85c-.43,1.3-.86,2.61-1.31,3.91-.27.78-.51.91-1.31.78l-2.34-.35c0,.17.07.28.1.39l3.86,12.49A1.59,1.59,0,0,1,51,71.55l-2.14,1.77,4.47,2.16c1.67.81,3.34,1.61,5,2.43a16.07,16.07,0,0,1,2.6,1.74c1.4,1.22,2.78,2.46,4.16,3.69l3.7,3.3L69.63,84C70,82.87,70.24,82.64,71.39,82.53Z"/><path class="cls-5" d="M67.06,168c-3.52,3.43-14.82,6.39-14.39,6.74s2.42-10.15,5.93-13.58,9.27-3.65,10.6-2.79S70.58,164.59,67.06,168Z"/><path class="cls-5" d="M93.35,143.67c1.35-3,7.65-7.54,7.3-7.65s1,6.88-.4,9.86-4.87,4.5-5.9,4.29S92,146.65,93.35,143.67Z"/><path class="cls-5" d="M131.68,171.18c2.3,6.73-2.12,23.78-1.27,23.39s-13-9.05-15.29-15.78,1.83-14.68,4.11-16S129.37,164.45,131.68,171.18Z"/><path class="cls-5" d="M44.43,133.55c-2.8,1.86-10.79,2.41-10.54,2.7s2.92-6.52,5.72-8.39,6.7-1.27,7.49-.53S47.24,131.69,44.43,133.55Z"/><path class="cls-5" d="M60.24,104.15c2.92.05,8.88,3.59,8.85,3.26s-5.29,3.21-8.21,3.16-5.41-2.39-5.6-3.31S57.32,104.1,60.24,104.15Z"/><path class="cls-5" d="M44.44,94.36c-1.6-.29-4.62-2.52-4.62-2.36s3.16-1,4.76-.75a3.88,3.88,0,0,1,2.83,2.08C47.44,93.78,46,94.65,44.44,94.36Z"/><circle class="cls-1" cx="102.84" cy="60.42" r="3.89"/><circle class="cls-2" cx="103.13" cy="60.71" r="3.22"/><circle class="cls-1" cx="119.5" cy="34.86" r="4.96" transform="translate(-4.96 32.42) rotate(-15.14)"/><circle class="cls-2" cx="119.24" cy="35.31" r="4.1" transform="translate(-5.08 32.37) rotate(-15.14)"/><circle class="cls-1" cx="21.82" cy="50.61" r="2.3" transform="translate(-12.46 7.46) rotate(-15.14)"/><circle class="cls-2" cx="21.7" cy="50.81" r="1.9" transform="translate(-12.52 7.43) rotate(-15.14)"/><circle class="cls-1" cx="41.31" cy="38.99" r="2.3" transform="translate(-8.75 12.14) rotate(-15.14)"/><circle class="cls-2" cx="41.19" cy="39.2" r="1.9" transform="translate(-8.81 12.12) rotate(-15.14)"/><circle class="cls-1" cx="83.67" cy="13.91" r="2.3" transform="translate(-0.73 22.34) rotate(-15.14)"/><circle class="cls-2" cx="83.55" cy="14.12" r="1.9" transform="translate(-0.79 22.31) rotate(-15.14)"/><circle class="cls-1" cx="103.16" cy="2.3" r="2.3" transform="translate(2.98 27.02) rotate(-15.14)"/><circle class="cls-2" cx="103.04" cy="2.51" r="1.9" transform="translate(2.92 27) rotate(-15.14)"/><circle class="cls-1" cx="29.81" cy="99.02" r="6.21" transform="translate(-24.83 11.22) rotate(-15.14)"/><circle class="cls-2" cx="29.49" cy="99.58" r="5.13" transform="translate(-24.99 11.16) rotate(-15.14)"/><circle class="cls-1" cx="13.48" cy="70.8" r="2.88" transform="translate(-18.02 5.98) rotate(-15.14)"/><circle class="cls-2" cx="13.33" cy="71.06" r="2.38" transform="translate(-18.1 5.95) rotate(-15.14)"/><circle class="cls-1" cx="37.86" cy="56.27" r="2.88" transform="translate(-13.38 11.84) rotate(-15.14)"/><circle class="cls-2" cx="37.71" cy="56.53" r="2.38" transform="translate(-13.46 11.81) rotate(-15.14)"/><circle class="cls-1" cx="19.52" cy="16.02" r="2.3" transform="translate(-3.51 5.66) rotate(-15.14)"/><circle class="cls-2" cx="19.4" cy="16.23" r="1.9" transform="translate(-3.57 5.63) rotate(-15.14)"/><circle class="cls-1" cx="75.76" cy="35.45" r="6.32" transform="translate(-7.23 45.89) rotate(-32.25)"/><circle class="cls-2" cx="76.13" cy="35.16" r="5.59" transform="translate(-7.02 46.04) rotate(-32.25)"/><ellipse class="cls-1" cx="4.74" cy="50.81" rx="4.72" ry="4.96" transform="translate(-13.11 3) rotate(-15.14)"/><ellipse class="cls-2" cx="4.49" cy="51.26" rx="3.9" ry="4.1" transform="translate(-13.23 2.95) rotate(-15.14)"/><circle class="cls-1" cx="61.95" cy="10.4" r="2.3" transform="translate(-0.57 16.54) rotate(-15.14)"/><circle class="cls-2" cx="61.83" cy="10.61" r="1.9" transform="translate(-0.63 16.52) rotate(-15.14)"/><circle class="cls-1" cx="38.82" cy="26.5" r="4.98" transform="translate(-8.15 24.8) rotate(-32.25)"/><circle class="cls-2" cx="39.11" cy="26.27" r="4.41" transform="translate(-7.98 24.92) rotate(-32.25)"/></g></g></svg>