<svg xmlns="http://www.w3.org/2000/svg" viewBox="0 0 269.73 475.31"><defs><style>.cls-1{fill:#1a1b49;}.cls-2{fill:#00aeef;}.cls-10,.cls-15,.cls-3{font-size:7px;font-family:MyriadPro-Bold, Myriad Pro;font-weight:700;}.cls-10,.cls-15,.cls-16,.cls-17,.cls-18,.cls-19,.cls-3{fill:#fff;}.cls-11,.cls-3{letter-spacing:0.1em;}.cls-4{letter-spacing:0.11em;}.cls-15,.cls-5{letter-spacing:0.1em;}.cls-6{fill:#ed1c24;}.cls-7{letter-spacing:0.11em;}.cls-8{letter-spacing:0.1em;}.cls-9{fill:#00a651;}.cls-10{letter-spacing:0.07em;}.cls-12{letter-spacing:0.11em;}.cls-13{letter-spacing:0.02em;}.cls-14{fill:#fbb040;}.cls-16{font-size:30.53px;}.cls-16,.cls-17,.cls-18,.cls-19{font-family:Lato-Regular, Lato;}.cls-17{font-size:39.54px;}.cls-18{font-size:45.13px;}.cls-19{font-size:32.61px;}.cls-20{letter-spacing:-0.07em;}.cls-21{letter-spacing:-0.02em;}</style></defs><title>Asset 3</title><g id="Layer_2" data-name="Layer 2"><g id="Layer_1-2" data-name="Layer 1"><rect class="cls-1" width="268.85" height="94.67"/><rect class="cls-1" x="0.88" y="383.98" width="268.85" height="91.33"/><circle class="cls-2" cx="134.48" cy="158.32" r="40.75"/><text class="cls-3" transform="translate(112.38 164.64)">INSPE<tspan class="cls-4" x="21.91" y="0">C</tspan><tspan class="cls-5" x="26.87" y="0">TION</tspan></text><circle class="cls-6" cx="55.87" cy="238.85" r="40.75"/><text class="cls-3" transform="translate(39.76 240.82)">R<tspan class="cls-7" x="4.85" y="0">E</tspan><tspan class="cls-8" x="9.34" y="0">VI</tspan><tspan class="cls-7" x="17.18" y="0">E</tspan><tspan x="21.67" y="0">W</tspan></text><circle class="cls-9" cx="211.68" cy="239.82" r="40.75"/><text class="cls-10" transform="translate(179.22 241.8)">C<tspan class="cls-11" x="4.66" y="0">OMMUNI</tspan><tspan class="cls-12" x="37.32" y="0">C</tspan><tspan class="cls-13" x="42.25" y="0">A</tspan><tspan class="cls-11" x="46.96" y="0">TION</tspan></text><circle class="cls-14" cx="134.48" cy="317.01" r="40.75"/><text class="cls-15" transform="translate(117.98 319.69)">REPORT</text><path d="M212,177a21.28,21.28,0,0,0-7.07-9,19.14,19.14,0,0,0-13.5-3.22c-2.23.24-4.43.86-6.64,1.31-.54.11-1,.37-.91,1s.66.65,1.21.63c6.78-.25,12,2.47,15.39,8.37a42.43,42.43,0,0,1,1.81,4L197,181.82a2.33,2.33,0,0,0-.76.27,1.53,1.53,0,0,0-.6.81c0,.23.26.6.5.74,1.17.68,2.38,1.31,3.58,1.95L209.82,191c1,.53,1.25.44,1.76-.58,2.26-4.54,4.52-9.08,6.75-13.63.17-.35.25-1,.06-1.21a1.45,1.45,0,0,0-1.22-.14C215.46,175.89,213.78,176.46,212,177Z"/><path d="M198,316.67a21.28,21.28,0,0,0,9.42-6.52,19.14,19.14,0,0,0,4-13.29c-.11-2.24-.59-4.47-.92-6.7-.08-.55-.3-1.05-1-1s-.69.62-.7,1.17c-.15,6.78-3.18,11.8-9.26,14.87a42.43,42.43,0,0,1-4.12,1.57l-1.38-5.38a2.33,2.33,0,0,0-.22-.78,1.53,1.53,0,0,0-.77-.64,1,1,0,0,0-.77.46c-.75,1.13-1.45,2.3-2.16,3.46l-6,9.73c-.58,1-.51,1.23.47,1.79,4.4,2.52,8.79,5.05,13.21,7.54.34.19,1,.31,1.2.13a1.45,1.45,0,0,0,.21-1.21C199,320.18,198.49,318.47,198,316.67Z"/><path d="M62.33,298.25a21.28,21.28,0,0,0,6.23,9.62,19.14,19.14,0,0,0,13.16,4.42c2.25,0,4.49-.46,6.73-.71.55-.06,1.06-.27,1-.93s-.6-.71-1.15-.74c-6.78-.36-11.7-3.54-14.58-9.71A42.43,42.43,0,0,1,72.27,296l5.42-1.21a2.33,2.33,0,0,0,.78-.2,1.53,1.53,0,0,0,.67-.75,1,1,0,0,0-.43-.78c-1.11-.78-2.25-1.52-3.39-2.26l-9.54-6.26c-.94-.61-1.21-.55-1.81.42-2.66,4.32-5.32,8.64-7.94,13-.2.33-.34,1-.17,1.2a1.45,1.45,0,0,0,1.2.24C58.8,299.07,60.53,298.66,62.33,298.25Z"/><path d="M68.14,158.91a21.28,21.28,0,0,0-9,7.08,19.14,19.14,0,0,0-3.2,13.51c.24,2.23.86,4.43,1.32,6.63.11.54.37,1,1,.91s.65-.66.63-1.21c-.26-6.78,2.46-12,8.35-15.4a42.43,42.43,0,0,1,4-1.82l1.7,5.29a2.33,2.33,0,0,0,.27.76,1.53,1.53,0,0,0,.81.6c.23,0,.6-.26.74-.5.68-1.18,1.3-2.38,1.94-3.58l5.36-10.07c.53-1,.44-1.25-.58-1.76-4.54-2.25-9.08-4.51-13.64-6.73-.35-.17-1-.25-1.21-.06a1.45,1.45,0,0,0-.13,1.22C67,155.46,67.57,157.15,68.14,158.91Z"/><text class="cls-16" transform="translate(20.51 37.89)">PERFORMANCE</text><text class="cls-17" transform="translate(19.51 80.8)">ASSURANCE</text><text class="cls-18" transform="translate(22.14 426.51)">CLEANING</text><text class="cls-19" transform="translate(23.31 463.52)">S<tspan class="cls-20" x="17.28" y="0">A</tspan><tspan x="37.3" y="0">TIS</tspan><tspan class="cls-20" x="83.83" y="0">F</tspan><tspan class="cls-21" x="100.13" y="0">A</tspan><tspan x="121.62" y="0">CTION</tspan></text></g></g></svg>