<svg xmlns="http://www.w3.org/2000/svg" xmlns:xlink="http://www.w3.org/1999/xlink" viewBox="0 0 269.73 418.09"><defs><style>.cls-1{fill:#1a1b49;}.cls-2{font-size:30.53px;}.cls-2,.cls-3,.cls-4,.cls-5{fill:#fff;font-family:Lato-Regular, Lato;}.cls-3{font-size:39.54px;}.cls-4{font-size:45.13px;}.cls-5{font-size:32.61px;}.cls-6{letter-spacing:-0.07em;}.cls-7{letter-spacing:-0.02em;}.cls-8{font-size:31.54px;fill:#231f20;font-family:MyriadPro-Regular, Myriad Pro;}.cls-9{letter-spacing:-0.07em;}.cls-10{letter-spacing:-0.04em;}.cls-11{letter-spacing:0em;}.cls-12{letter-spacing:0.03em;}.cls-13{fill:#ed2024;}</style><symbol id="Check" data-name="Check" viewBox="0 0 -32766 -32766"/></defs><title>Asset 4</title><g id="Layer_2" data-name="Layer 2"><g id="Layer_1-2" data-name="Layer 1"><rect class="cls-1" width="268.85" height="94.67"/><rect class="cls-1" x="0.88" y="326.75" width="268.85" height="91.33"/><text class="cls-2" transform="translate(20.51 37.89)">PERFORMANCE</text><text class="cls-3" transform="translate(19.51 80.8)">ASSURANCE</text><text class="cls-4" transform="translate(22.14 369.28)">CLEANING</text><text class="cls-5" transform="translate(23.31 406.29)">S<tspan class="cls-6" x="17.28" y="0">A</tspan><tspan x="37.3" y="0">TIS</tspan><tspan class="cls-6" x="83.83" y="0">F</tspan><tspan class="cls-7" x="100.13" y="0">A</tspan><tspan x="121.62" y="0">CTION</tspan></text><text class="cls-8" transform="translate(68.65 148.16)"><tspan class="cls-9">T</tspan><tspan x="13.31" y="0">ASK LIST</tspan><tspan x="0" y="45.92">TIME </tspan><tspan class="cls-10" x="70.78" y="45.92">L</tspan><tspan x="84.44" y="45.92">OGS</tspan><tspan x="0" y="91.84">T</tspan><tspan class="cls-11" x="15.68" y="91.84">R</tspan><tspan x="32.81" y="91.84">AINING</tspan><tspan x="0" y="137.76">INPSE</tspan><tspan class="cls-12" x="76.15" y="137.76">C</tspan><tspan x="95.33" y="137.76">TIONS</tspan></text><use id="Check-3" data-name="Check" width="-32766" height="-32766" transform="translate(16777.39 16522.77)" xlink:href="#Check"/><polygon class="cls-13" points="31.51 139.68 24.9 132.51 17.61 139.8 17.61 139.8 31.36 153.55 54.59 130.32 49.28 124.92 31.51 139.68"/><polygon class="cls-13" points="31.51 185.9 24.9 178.73 17.61 186.02 17.61 186.02 31.36 199.77 54.59 176.54 49.28 171.14 31.51 185.9"/><polygon class="cls-13" points="31.51 232.12 24.9 224.95 17.61 232.25 17.61 232.24 31.36 246 54.59 222.76 49.28 217.36 31.51 232.12"/><polygon class="cls-13" points="31.51 278.34 24.9 271.17 17.61 278.46 17.61 278.46 31.36 292.21 54.59 268.98 49.28 263.58 31.51 278.34"/></g></g></svg>